<svg xmlns="http://www.w3.org/2000/svg" viewBox="0 0 128 128">
  <path d="M75.6 4.2c-1.4-.8-3.1-.8-4.5 0L52.8 15.1c-1.4.8-2.2 2.3-2.2 3.9v21.8c0 1.6-.9 3.1-2.2 3.9L38 50.5c-1.4.8-3.1.8-4.5 0L23.1 44.8c-1.4-.8-2.2-2.3-2.2-3.9V27.1c0-1.6.9-3.1 2.2-3.9l9.1-5.3c1.1-.6 1.1-2.2 0-2.8L23.1 9.8c-1.1-.6-2.5-.6-3.6 0L4.4 18.8C3 19.6 2.2 21.1 2.2 22.7v26.1c0 1.6.9 3.1 2.2 3.9L31.9 68c1.4.8 3.1.8 4.5 0l27.5-15.9c1.4-.8 2.2-2.3 2.2-3.9V27.1c0-1.6.9-3.1 2.2-3.9l9.4-5.4c1.4-.8 3.1-.8 4.5 0l9.4 5.4c1.4.8 2.2 2.3 2.2 3.9v16.8c0 1.6-.9 3.1-2.2 3.9l-9.1 5.3c-1.1.6-1.1 2.2 0 2.8l9.1 5.3c1.1.6 2.5.6 3.6 0l15.1-8.7c1.4-.8 2.2-2.3 2.2-3.9V22.7c0-1.6-.9-3.1-2.2-3.9L75.6 4.2z" fill="#E0234E" transform="translate(8, 28) scale(0.88)"/>
</svg>
